<svg xmlns="http://www.w3.org/2000/svg" xmlns:xlink="http://www.w3.org/1999/xlink" id="Layer_1" x="0px" y="0px" viewBox="0 0 1080 1079" style="enable-background:new 0 0 1080 1079;" xml:space="preserve"> <style type="text/css"> .st0{fill:#FFFFFF;} .st1{fill:#A8722D;} .st2{fill:#1A72BA;} .st3{fill:none;stroke:#00A5E5;stroke-miterlimit:10;} .st4{font-family:'ProximaNova-Bold';} .st5{font-size:20px;} .st6{font-family:'MyriadPro-Regular';} .st7{fill:#00A5E5;stroke:#FFFFFF;stroke-miterlimit:10;} .st8{fill:#0054A6;stroke:#FFFFFF;stroke-miterlimit:10;} .st9{fill:none;stroke:#0054A6;stroke-miterlimit:10;} .st10{font-size:90.1671px;} .st11{fill:#A5A5A5;} .st12{font-family:'Roboto-MediumItalic';} .st13{font-size:31.669px;} </style> <g> <rect class="st0" width="1080" height="1080"></rect> </g> <path class="st1" d="M741.6,682.6c1.3,0,2.5,0.3,3.5,1.1C743.9,683.5,742.5,684.1,741.6,682.6z"></path> <path class="st2" d="M644.8,864.4c-1.3-1.4-0.5-2.4,0.6-3.2c2.1-1.5,1.8-3.4,1.2-5.5c-1.6-5.5-3.9-10.6-7.5-15.2 c-1.4-1.8-2.9-2.8-5.1-2.9c-4.5-0.1-9-0.3-13.5-0.4c-0.4,0-0.9-0.1-1.1,0c-6.5,5.1-12.6-0.1-18.1-1.9c-6.7-2.2-14-4.3-19.8-8.9 c-0.9-0.7-0.8-1.5-1.1-2.2c-1.7-4.1-3.8-7.5-8-10.2c-3.5-2.2-7-4.9-10.4-7.5c-4-3.1-8.3-5.8-13.7-5.9c-2,0-3.9,0-5.7,0.9 c-1.6,0.8-3.3,1-4.9,0.4c-2.7-1.1-5.3-1.4-8.3-0.7c-2.8,0.7-5.1-1.8-7.4-3c-8.2-4.2-16.8-3.4-25.5-2.8c-4.1,0.3-8.2,0.7-12.4,1.1 c-3.1,0.3-5.4-1-6.6-3.8c-1.6-3.6-4.3-5.2-8.1-5.6c-3.7-0.3-4.5-1.7-3.4-5.4c0.6-2,1.1-3.9,2.4-5.6c1.1-1.5,1.2-3.7-0.1-5.1 c-2.7-2.7-1.8-5.8-1.1-8.6c1-3.5,1.4-6.4-2-8.9c-1.3-0.9-1.9-2.7-1-4.5c2.8-5.5,1.7-11.4,1.9-17.1c0.1-2.7-6-6-8.1-4.2 c-2,1.7-2.8,0.4-4.2-0.4c-9.7-5.9-8.4-4.3-5.6-14.8c1.7-6.3,0.1-9.6-5.9-11.3c-7.7-2.2-11.9-8.1-15.4-14.5c-1.5-2.8-3.4-4.2-6.5-4.7 c-4.3-0.6-6.8-3.7-7.9-7.7c-1.1-4.1-3.4-7.3-6.3-10.4c-2.7-3-7.4-4.8-6.6-10.4c0.3-2-1.4-4.4-3.9-5.8c-4.2-2.3-6.8-6.3-9.3-10.2 c-3.3-5.1-7.6-9.2-12.4-12.1c-5.9-3.6-8.8-8.1-9.5-14.8c-0.3-2.9-0.4-5.8-2.4-8.4c-1-1.3-0.7-3.5,0-5.3c0.7-1.9,0.6-3.3-1.7-3.8 c-2-0.5-2-1.9-1.1-3.3c0.9-1.4,1.7-3.1,3.9-2.3c4.6,1.7,7.6-0.1,8.4-5c0.6-3.7,1.2-7.4,1.8-11.1c0.6-4.3-4.4-14.7-8-16.5 c-1.8-0.9-4-0.8-5.7-0.3c-9.9,2.7-17.1-0.8-22.2-9.4c-2.6-4.3-7.6-6.1-10.8-10.2c-2.6-3.3-3.4-6.2-2.8-9.9c0.8-4.5,0.7-8.7-1.5-12.8 c-0.8-1.4-1.2-2.9-1-4.5c0.3-2.1-0.9-3.4-2.5-4.5c-3-2.1-3.9-5-2.2-8.1c2.2-4,1.5-7.9,0.5-11.9c-0.8-3.1,0-5.9,2.8-7.9 c2.9-2,5.6-1.4,6.7,2c0.6,1.9,2.1,2.8,3.4,4.4c-4.5,1.1-4,4.5-3.9,7.7c0,3.3,2,4.9,4.9,5.6c7,1.8,12.5,5.7,16.6,11.7 c1,1.5,2.8,1.8,4.5,1.8c1.7,0,2.9-0.9,3.1-2.4c0.2-1.5-0.6-2.9-2.2-3.1c-3.4-0.4-4.4-2.8-5-5.6c-0.8-3.5-2.8-6.7-3.1-10.3 c0-0.5-0.3-1.2-0.7-1.3c-4.8-2-6.5-7.8-11.5-9.4c-2.2-0.7-2.4-2-1.2-3.8c2.6-4.3,1.6-7.3-3-9.3c-1.5-0.7-4.6-1.1-3.6-3 c1.2-2.2,1.9-6,5.1-6.1c3.8,0,5.6-3,8.5-4.2c0.5-0.2,0.8-0.7,0.6-1.2c-0.2-0.7-0.8-0.9-1.5-1c-3.9-0.2-5.1-2.2-4.5-5.9 c0.6-3.7-2.5-3-4.1-2.5c-3.6,1.3-6.9,3.1-10.2,5c-1.7,1-1.6,6.6-0.1,8.5c1.6,2.1,3.6,4.1-0.8,5.7c-1.5,0.6-1.9,2.4,0.3,3.5 c1.5,0.7,2.2,1.6,0.1,2.6c-0.8,0.4-1.9,0.5-1.4,1.8c0.6,1.5,1.7,0.6,2.6,0.3c0.7-0.3,1.5-0.5,2.3-0.1c-1.8,5.7-6.3,7.1-10.5,3 c-3-3-6.1-5.3-10.7-5.5c-2.5-0.1-4.7-2.1-6.3-4.2c-2.2-2.8-4.9-5-7.9-6.7c-2.2-1.2-3.5-2.5-1.4-4.9c-2.7-0.9-3.3,1-4.3,2.5 c-1.3,2.1-2.6,6.2-4.8,5c-2.2-1.1,1-4.2,1.8-6.5c1.5-4.2,5.2-8.1,1.6-12.9c-0.4-0.5-1-1.5,0.2-1.8c1-0.3,1.9,0.4,2.2,1.3 c1.1,2.7,3,4.8,4.6,7.1c0.7,0.9,1.5,1.8,2.3,2.6c1.4,1.6,3.1,0.7,4.1-0.2c1.1-1,0.4-3.1-0.4-3.4c-5.1-1.8-6.4-8.1-11.7-9.5 c-0.9-0.2-1.3-1-1.2-1.8c0.3-2.2-1.1-3.2-2.6-4.3c-4.8-3.4-7.3-8.5-9.9-13.6c-1.1-2.2-4-4.5-6.4-5c-4.8-1-6.9-5-9.8-7.8 c-4.4-4.4-7.8-9.7-11.9-14.4c-1.3-1.5-3.3-2.4-5-3.5c-6.3-4-9.4-10.8-14.7-15.6c-1.8-1.6-1.6-3.2-0.3-4.8c4.7-5.6,2.2-11.6-0.9-15.9 c-3.2-4.5-2.9-9.4-4.6-13.9c-0.4-1.2-0.5-2.6-1.3-3.6c-1.5-2-1.8-4.2-1.3-6.6c0.8-3.8,0.8-7.8,3.3-11.2c1.9-2.6,1.9-5.6,0.8-8.6 c-0.6-1.5-0.9-3-0.8-4.6c0.2-2.6-0.4-4.6-2.6-6.5c-2.3-2.1-2.5-5.3-2.2-8.3c0.2-2.5-0.4-4.3-2.7-5.4c-1.9-1-2.5-3-3.7-4.6 c-2.8-4.1-5.7-8.4-9.8-11.3c-1.8-1.3-2.3-2.1-2.4-4.1c-0.1-2.6-1.1-4.7-4.1-5.4c-5.5-1.3-9-5.9-13.4-8.9c-2.4-1.7-7.2-4.9-4.9-10.5 c0.5-1.3-0.8-4.7-1.7-6.2c-5.4-8.8,1.2-15.3,3.9-22.3c3.8-10.2,12.7-17.9,15-29c1-4.9,2.9-10-0.2-15c-1.1-1.7-1.1-3.9-0.5-5.7 c1.6-5.1,2.4-10.5,4.4-15.6c4.3-10.7,2.6-21.3-1.5-31.7c-0.2-0.6-0.8-1.1-0.8-1.7c-0.2-6-2.3-10.7-8.1-13.3 c-0.9-0.4-1.4-1.8-0.7-2.7c3.4-4.8,2-10.3,2-15.5c0-3.3,1-3.7,3.9-3.7c38,0.1,76,0.1,114,0.1c79,0,228.1-0.1,216.3-0.1 c-3.5,0,4.5,0.9,4.5,4.4c-0.1,37.9-0.3,75.7,0,113.6c0.2,26.6,0.8,53.1,0.4,79.7c-0.3,15.8-0.4,31.6-0.3,47.4 c0.1,11.8,1.2,23.6,0.1,35.3c-0.6,7.1,1.9,11,6.8,15.3c26.2,23,52,46.4,78,69.6c30.4,27.2,60.9,54.4,91.4,81.5 c34.1,30.5,68.3,60.9,102.5,91.3c9.2,8.2,18.5,16.2,27.7,24.4c29.9,26.7,59.6,53.4,89.5,80c9.9,8.7,19.7,17.5,29.6,26.2 c3.1,2.8,4.3,5.9,3.9,9.9c-0.4,4.4,0.7,7.8,3.5,11.8c3,4.3,5.8,8.9,9.2,13.2c3.2,3.9,3.2,9.4,5.9,13.7c1.2,1.9,0.2,4.3-0.1,6.5 c-0.3,2.2,0,4.3,2.7,4.1c4.7-0.4,6.9,3.2,9.4,5.7c2,2,3.9,3.5,6.6,4.4c2.6,0.8,3.6,4.1,1.7,6.1c-6.2,6.4-12.3,12.9-21.4,15.2 c-2.6,0.7-3.2,2.6-2.8,4.8c0.6,3.6-0.7,6-3.5,8.3c-3.8,3-3.9,4.8-1.6,9c0.4,0.8,1.6,1.5,0.9,2.3c-3.8,4.4,0,7.9,1.2,11.6 c0.4,1.3,0.9,3.1-0.4,3.5c-3.2,1.1-1.9,2.9-2.1,5.2c-0.3,4.6-0.4,9.7-3.9,13.7c-1.9,2.1-5,3.2-5.3,6.8c-0.2,1.8-2.3,1-3.6,1.3 c-1.8,0.4-4,0.6-2.1,3.3c0.5,0.7,0.3,1.5,0.2,2.2c-0.6,3.8-0.8,7,1.9,10.6c2.3,3.1,1.5,7.8,0,11.6c-2.5,6.2,0,11,6.8,10.6 c4.5-0.2,6.8,1.9,9.4,4.7c1.1,1.2,1,2.6,1,4c-0.1,2.2-0.3,4.4-0.4,6.6c-0.1,1.1,0.2,2.6-0.9,3.2c-2.5,1.5-2.9,3.6-3.4,6.4 c-0.5,2.9-4,3.6-6.6,3.5c-7.1-0.1-13.7,2.6-20.6,3.5c-0.6,0.1-1.3,0.2-1.9,0.2c-15.2-0.4-30.1,3.1-45.2,4.2c-10,0.7-20,2.3-30.1,2 c-6.9-0.2-13.7,0.9-20.4,2.2c-6.1,1.2-12.3,1.4-18.5,1.8c-11,0.7-21.8,3.2-32.8,3.3c-9.2,0.1-18.3,1.5-27.4,2.6 c-4.8,0.6-5.4,0.1-5.3-4.7c0.1-5.6-1.7-8.4-7.4-10.5c-1.6-0.6-1.4-1.6-1.4-2.8c0-4.1,0.2-8.3-4-11c-1.3-0.8-0.5-2.1,0.7-2.1 c3.2,0,2.5-2.1,2.6-4c0.6-11.8-5.5-20.8-11.7-30c-5.3-7.8-11.6-14.5-18.1-21.2c-0.6-0.6-1.3-1.4-2.1-1.7c-6-2.3-8.9-8-13.2-12.2 c-1.1-1-2.1-2.2-3.5-2.4c-7.9-1-12.3-7.1-17.5-12c-1.8-1.7-3.5-3.3-6-4c-3.6-1-6.5-1.4-9.1,2.3c-2.4,3.5-5.1,1.7-7.5-0.4 C648.1,865.4,646.3,865.3,644.8,864.4z"></path> <line class="st3" x1="368.4" y1="397.8" x2="164.4" y2="397.8"></line> <text transform="matrix(1 0 0 1 140.4028 393.4707)" class="st4 st5">UC Davis</text> <text transform="matrix(1 0 0 1 140.4028 415.123)" class="st6 st5">CITRIS</text> <line class="st3" x1="533.5" y1="457.5" x2="349.1" y2="457.9"></line> <line class="st3" x1="586.5" y1="513.5" x2="431.6" y2="513.5"></line> <line class="st3" x1="352.2" y1="544.6" x2="214.8" y2="544.6"></line> <line class="st3" x1="529.3" y1="793.2" x2="335.9" y2="793.2"></line> <line class="st3" x1="710.9" y1="861.8" x2="521.2" y2="861.8"></line> <line class="st3" x1="832.5" y1="816.5" x2="646.6" y2="816.3"></line> <line class="st3" x1="735.3" y1="931.7" x2="582.8" y2="931.7"></line> <text transform="matrix(1 0 0 1 129.5767 482.8525)" class="st4 st5">UC San Francisco</text> <text transform="matrix(1 0 0 1 129.5767 504.5068)" class="st6 st5">QB3</text> <text transform="matrix(1 0 0 1 420.8882 453.3086)" class="st4 st5">UC Berkeley</text> <text transform="matrix(1 0 0 1 423.5454 475.9639)" class="st6 st5">QB3 | CITRIS</text> <text transform="matrix(1 0 0 1 484.0005 509.124)" class="st4 st5">UC Merced</text> <text transform="matrix(1 0 0 1 533.457 531.7773)" class="st6 st5">CITRIS</text> <text transform="matrix(1 0 0 1 180.7681 539.543)" class="st4 st5">UC Santa Cruz</text> <text transform="matrix(1 0 0 1 180.7681 564.1963)" class="st6 st5">QB3 | CITRIS</text> <text transform="matrix(1 0 0 1 291.396 788.7871)" class="st4 st5">UC Santa Barbara</text> <text transform="matrix(1 0 0 1 291.395 810.4414)" class="st6 st5">CNSI</text> <text transform="matrix(1 0 0 1 686.9219 811.2041)" class="st4 st5">UC Los Angeles</text> <text transform="matrix(1 0 0 1 791.4453 833.8574)" class="st6 st5">CNSI</text> <text transform="matrix(1 0 0 1 521.2104 857.4043)" class="st4 st5">UC Irvine</text> <text transform="matrix(1 0 0 1 521.2104 879.0557)" class="st6 st5">Calit2</text> <text transform="matrix(1 7.053082e-03 -7.053082e-03 1 561.863 926.2457)" class="st4 st5">UC San Diego</text> <text transform="matrix(1 7.053082e-03 -7.053082e-03 1 561.7456 948.8995)" class="st6 st5">Calit2</text> <g> <circle class="st7" cx="368.4" cy="397.8" r="16.2"></circle> <circle class="st8" cx="368.4" cy="397.8" r="8.1"></circle> </g> <g> <circle class="st7" cx="349.1" cy="457.9" r="16.2"></circle> <circle class="st8" cx="349.1" cy="457.9" r="8.1"></circle> </g> <g> <circle class="st7" cx="431.6" cy="513.5" r="16.2"></circle> <circle class="st8" cx="431.6" cy="513.5" r="8.1"></circle> </g> <g> <circle class="st7" cx="710.9" cy="861.8" r="16.2"></circle> <circle class="st8" cx="710.9" cy="861.8" r="8.1"></circle> </g> <g> <circle class="st7" cx="646.6" cy="816.3" r="16.2"></circle> <circle class="st8" cx="646.6" cy="816.3" r="8.1"></circle> </g> <g> <circle class="st7" cx="529.3" cy="793.2" r="16.2"></circle> <circle class="st8" cx="529.3" cy="793.2" r="8.1"></circle> </g> <line class="st9" x1="316.8" y1="487.4" x2="129.5" y2="487.5"></line> <g> <circle class="st7" cx="316.6" cy="487.4" r="16.2"></circle> <circle class="st8" cx="316.6" cy="487.4" r="8.1"></circle> </g> <line class="st9" x1="248.2" y1="397.8" x2="140.5" y2="397.5"></line> <line class="st9" x1="477.5" y1="793.2" x2="291.5" y2="793.5"></line> <line class="st9" x1="644.9" y1="861.8" x2="521.2" y2="861.8"></line> <line class="st9" x1="736.9" y1="931.7" x2="561.5" y2="931.5"></line> <g> <circle class="st7" cx="735.3" cy="931.7" r="16.2"></circle> <circle class="st8" cx="735.3" cy="931.7" r="8.1"></circle> </g> <line class="st9" x1="352.2" y1="544.7" x2="180.5" y2="544.5"></line> <g> <circle class="st7" cx="352.2" cy="544.6" r="16.2"></circle> <circle class="st8" cx="352.2" cy="544.6" r="8.1"></circle> </g> <text transform="matrix(1 0 0 1 560.6211 316.0322)" class="st2 st4 st10">CAL ISI</text> <text transform="matrix(1 0 0 1 562 152.0293)"><tspan x="0" y="0" class="st11 st12 st13">Governor Gray Davis</tspan><tspan x="0" y="38" class="st11 st12 st13">Institutes for Science</tspan><tspan x="0" y="76" class="st11 st12 st13">and Innovation</tspan></text> </svg>